<svg xmlns="http://www.w3.org/2000/svg" height="24" viewBox="0 -960 960 960" width="24">
    <defs>
        <linearGradient id="star" x1="0%" y1="0%" x2="100%" y2="100%">
            <stop offset="0%" style="stop-color: rgba(255,239,90,1)" />
            <stop offset="100%" style="stop-color: rgba(249,183,28,1)" />
        </linearGradient>
    </defs>
    <path
        d="M480-229 314-129q-11 7-23 6t-21-8q-9-7-14-17.5t-2-23.5l44-189-147-127q-10-9-12.5-20.5T140-531q4-11 12-18t22-9l194-17 75-178q5-12 15.5-18t21.5-6q11 0 21.5 6t15.5 18l75 178 194 17q14 2 22 9t12 18q4 11 1.5 22.5T809-488L662-361l44 189q3 13-2 23.5T690-131q-9 7-21 8t-23-6L480-229Z"
        style="fill: url(#star);"
    />
</svg>