<svg version="1.1" xmlns="http://www.w3.org/2000/svg" xmlns:xlink="http://www.w3.org/1999/xlink" viewBox="0 0 458.25 458.25">
    <defs>
        <linearGradient id="thunder" x1="0%" y1="0%" x2="100%" y2="100%">
            <stop offset="0%" style="stop-color: rgba(255,211,90,1)" />
            <stop offset="100%" style="stop-color: rgba(254,163,9,1)" />
        </linearGradient>
    </defs>
    <path d="M358.905,168.96c-1.967-2.83-5.098-4.63-8.533-4.907h-88.96l87.467-149.76c1.951-2.98,1.951-6.833,0-9.813
        c-1.902-2.733-4.991-4.397-8.32-4.48h-119.04c-3.627-0.001-6.972,1.957-8.747,5.12L99.065,244.053c-1.77,2.879-1.77,6.508,0,9.387
        c1.58,2.922,4.821,4.543,8.107,4.053h89.6l-64,188.8c-1.464,4.183,0.349,8.808,4.267,10.88c1.592,0.775,3.351,1.142,5.12,1.067
        c2.865-0.093,5.597-1.231,7.68-3.2L358.905,179.2C361.048,176.123,361.048,172.037,358.905,168.96z"
        style="fill: url(#thunder);" />
</svg>
